<svg xmlns="http://www.w3.org/2000/svg" viewBox="0 0 640 180" role="img" aria-labelledby="title desc">
  <title id="title">SoverGrid Distributed S logo</title>
  <desc id="desc">A connected route forming an S through independent provider nodes.</desc>
  <rect width="640" height="180" rx="24" fill="#F8F7F4"/>
  <g transform="translate(28 18)">
    <rect x="0" y="0" width="144" height="144" rx="32" fill="#111111"/>
    <path d="M104 35C92 23 50 23 38 43C23 68 47 76 73 78C98 80 119 90 108 111C96 133 53 130 38 114" fill="none" stroke="#FFFFFF" stroke-width="9" stroke-linecap="round"/>
    <path d="M104 35C92 23 50 23 38 43C23 68 47 76 73 78C98 80 119 90 108 111C96 133 53 130 38 114" fill="none" stroke="#7C3AED" stroke-width="3" stroke-linecap="round"/>
    <g fill="#7C3AED" stroke="#111111" stroke-width="4">
      <circle cx="104" cy="35" r="8"/><circle cx="39" cy="43" r="8"/><circle cx="73" cy="78" r="9"/><circle cx="108" cy="111" r="8"/><circle cx="38" cy="114" r="8"/>
    </g>
    <circle cx="73" cy="78" r="3" fill="#FFFFFF"/>
  </g>
  <g transform="translate(205 55)">
    <text x="0" y="45" fill="#111111" font-family="Inter,Arial,sans-serif" font-size="54" font-weight="750" letter-spacing="-2.4">sovergrid</text>
    <text x="2" y="75" fill="#6B6B6B" font-family="Inter,Arial,sans-serif" font-size="13" font-weight="600" letter-spacing="2.2">ONE DEPLOYMENT · EVERYWHERE</text>
  </g>
</svg>