<svg xmlns="http://www.w3.org/2000/svg" viewBox="0 0 180 180" role="img" aria-labelledby="title desc">
<title id="title">Animated SoverGrid Distributed S</title><desc id="desc">Provider nodes repeatedly appear and connect into an S-shaped route.</desc>
<style>
.route{fill:none;stroke:#fff;stroke-width:10;stroke-linecap:round;stroke-dasharray:360;animation:routeLoop 5.2s cubic-bezier(.65,0,.35,1) infinite}.signal{fill:none;stroke:#7C3AED;stroke-width:3;stroke-linecap:round;stroke-dasharray:360;animation:signalLoop 5.2s cubic-bezier(.65,0,.35,1) infinite}.node{transform-box:fill-box;transform-origin:center;animation:nodeLoop 5.2s cubic-bezier(.2,.9,.3,1.3) infinite}.n1{animation-delay:0s}.n2{animation-delay:.28s}.n3{animation-delay:.56s}.n4{animation-delay:.84s}.n5{animation-delay:1.12s}.pulse{fill:none;stroke:#7C3AED;stroke-width:2;transform-box:fill-box;transform-origin:center;animation:pulseLoop 5.2s ease-out infinite}
@keyframes routeLoop{0%,7%{stroke-dashoffset:360;opacity:0}9%{opacity:1}55%,82%{stroke-dashoffset:0;opacity:1}94%,100%{stroke-dashoffset:-360;opacity:0}}@keyframes signalLoop{0%,9%{stroke-dashoffset:360;opacity:0}11%{opacity:1}57%,82%{stroke-dashoffset:0;opacity:1}94%,100%{stroke-dashoffset:-360;opacity:0}}@keyframes nodeLoop{0%,5%{transform:scale(0);opacity:0}12%,80%{transform:scale(1);opacity:1}88%,100%{transform:scale(0);opacity:0}}@keyframes pulseLoop{0%,50%{opacity:0;transform:scale(.5)}58%{opacity:.75}78%{opacity:0;transform:scale(2.2)}100%{opacity:0}}
@media(prefers-reduced-motion:reduce){*{animation:none!important}.route,.signal{stroke-dashoffset:0}.node{transform:scale(1)}}
</style>
<rect width="180" height="180" rx="40" fill="#111111"/>
<path class="route" d="M128 43C113 27 62 28 47 52C29 82 59 91 90 93C120 95 145 107 132 132C117 158 65 155 47 136"/>
<path class="signal" d="M128 43C113 27 62 28 47 52C29 82 59 91 90 93C120 95 145 107 132 132C117 158 65 155 47 136"/>
<g fill="#7C3AED" stroke="#111" stroke-width="5"><circle class="node n1" cx="128" cy="43" r="10"/><circle class="node n2" cx="47" cy="52" r="10"/><circle class="node n3" cx="90" cy="93" r="12"/><circle class="node n4" cx="132" cy="132" r="10"/><circle class="node n5" cx="47" cy="136" r="10"/></g>
<circle class="pulse" cx="90" cy="93" r="13"/><circle class="node n3" cx="90" cy="93" r="4" fill="#fff"/>
</svg>