<svg xmlns="http://www.w3.org/2000/svg" viewBox="0 0 640 180" role="img" aria-labelledby="title desc">
  <title id="title">SoverGrid Sovereign Core logo</title><desc id="desc">A central orchestration core connected to four independent providers.</desc>
  <rect width="640" height="180" rx="24" fill="#F8F7F4"/>
  <g transform="translate(28 18)">
    <rect width="144" height="144" rx="32" fill="#FFFFFF" stroke="#E4E4E0"/>
    <g fill="none" stroke="#7C3AED" stroke-width="4" stroke-linecap="round">
      <path d="M72 72L36 36M72 72L108 36M72 72L108 108M72 72L36 108"/>
    </g>
    <path d="M72 44L96 58V86L72 100L48 86V58Z" fill="#111111"/>
    <path d="M72 55L86 63V81L72 89L58 81V63Z" fill="#7C3AED"/>
    <g fill="#FFFFFF" stroke="#7C3AED" stroke-width="5"><circle cx="36" cy="36" r="9"/><circle cx="108" cy="36" r="9"/><circle cx="108" cy="108" r="9"/><circle cx="36" cy="108" r="9"/></g>
  </g>
  <g transform="translate(205 55)"><text y="45" fill="#111111" font-family="Inter,Arial,sans-serif" font-size="54" font-weight="750" letter-spacing="-2.4">sovergrid</text><text x="2" y="75" fill="#6B6B6B" font-family="Inter,Arial,sans-serif" font-size="13" font-weight="600" letter-spacing="2.2">SOVEREIGN CLOUD CONTROL</text></g>
</svg>